<svg class="svg-icon" style="width: 1em; height: 1em;vertical-align: middle;fill: currentColor;overflow: hidden;" viewBox="0 0 1024 1024" version="1.1" xmlns="http://www.w3.org/2000/svg"><path d="M512 981.333333C252.8 981.333333 42.666667 771.2 42.666667 512S252.8 42.666667 512 42.666667s469.333333 210.133333 469.333333 469.333333-210.133333 469.333333-469.333333 469.333333z m44.245333-469.333333l159.914667-159.914667a31.274667 31.274667 0 1 0-44.245333-44.245333L512 467.754667 352.085333 307.84a31.274667 31.274667 0 1 0-44.245333 44.245333L467.754667 512l-159.914667 159.914667a31.274667 31.274667 0 1 0 44.245333 44.245333L512 556.245333l159.914667 159.914667a31.274667 31.274667 0 1 0 44.245333-44.245333L556.245333 512z" fill="#F5222D" /></svg>